<svg width="32" height="32" viewBox="0 0 32 32" fill="none" xmlns="http://www.w3.org/2000/svg">
<path fill-rule="evenodd" clip-rule="evenodd" d="M0.416992 16C0.416992 7.39352 7.39389 0.416626 16.0003 0.416626C24.6068 0.416626 31.5837 7.39352 31.5837 16C31.5837 24.6064 24.6068 31.5833 16.0003 31.5833C7.39389 31.5833 0.416992 24.6064 0.416992 16ZM17.3753 6.83329C17.3753 6.0739 16.7597 5.45829 16.0003 5.45829C15.2409 5.45829 14.6253 6.0739 14.6253 6.83329V16C14.6253 16.474 14.8696 16.9147 15.2716 17.166L20.7716 20.6035C21.4155 21.0059 22.2638 20.8102 22.6663 20.1662C23.0688 19.5222 22.873 18.6739 22.2291 18.2715L17.3753 15.2379V6.83329Z" fill="black"/>
</svg>
