<svg width="297" height="375" viewBox="0 0 297 375" fill="none" xmlns="http://www.w3.org/2000/svg">
<path d="M89.4152 179.777C117.156 196.297 150.998 176.833 149.408 176.494C96.9649 165.091 92.331 132.006 92.331 132.006C102.801 106.424 131.339 114.66 131.339 114.66C132.165 150.962 175.373 153.007 175.373 153.007C178.148 141.228 177.995 113.726 177.995 113.726C191.092 104.57 193.743 108.456 193.743 108.456C189.613 72.1123 172.982 60.3954 172.982 60.3954C170.21 57.8142 157.825 52.0115 151.464 51.2599L151.237 52.2676C151.237 52.2676 157.668 68.3251 145.344 69.3823C134.973 70.2909 129.08 57.5251 127.473 53.4736C113.989 57.6531 101.12 67.0076 92.5582 82.7429C72.3046 119.971 89.4152 179.777 89.4152 179.777Z" fill="#2E2E2E"/>
<path d="M86.4176 164.112L19.0118 208.716C5.94038 217.364 7.62129 237.048 21.9565 243.354L100.84 278.071C108.176 281.299 116.219 282.584 124.195 281.804C132.172 281.024 139.814 278.203 146.385 273.615L176.679 252.436" stroke="black" stroke-width="2.00561" stroke-miterlimit="10"/>
<path d="M86.4171 178.496L88.6844 176.993L18.999 223.092C5.92751 231.74 7.60842 251.424 21.9437 257.73L100.827 292.447C108.163 295.674 116.206 296.96 124.183 296.18C132.159 295.399 139.801 292.579 146.372 287.991L184.889 260.559" stroke="black" stroke-width="2.00561" stroke-miterlimit="10"/>
<path d="M27.7592 240.893L100.261 272.805C107.004 275.77 114.395 276.952 121.726 276.234C129.057 275.516 136.08 272.925 142.119 268.708L169.901 249.19C166.076 246.258 161.79 243.983 157.218 242.458C145.766 238.568 134.589 233.908 123.765 228.511C115.548 224.446 108.331 218.617 102.628 211.44C96.9251 204.262 92.8777 195.914 90.7747 186.992C89.3209 180.818 88.0448 174.573 86.9999 168.295L23.1914 210.475C11.1813 218.421 14.5886 235.102 27.7592 240.893Z" fill="white"/>
<path d="M214.579 333.38C214.579 333.38 201.867 328.11 199.43 324.137C199.43 324.137 198.972 333.157 201.351 336.238C203.73 339.319 217.945 347.463 218.709 346.443C219.473 345.423 214.579 333.38 214.579 333.38Z" fill="white"/>
<path d="M253.711 354.873C253.711 354.873 251.398 358.012 243.192 354.873C234.986 351.734 217.132 340.174 217.132 340.174C217.132 340.174 222.112 353.547 223.917 355.018C225.722 356.488 259.819 373.19 259.819 373.19C259.819 373.19 275.063 375.358 269.318 364.517L253.711 354.873Z" fill="white"/>
<path d="M204.638 180.14C223.43 187.454 243.316 204.639 237.595 252.229L236.005 264.595" stroke="black" stroke-width="2.00561" stroke-miterlimit="10"/>
<path d="M204.667 149.062C201.594 144.675 198.819 139.934 197.117 134.83C195.416 129.725 195.329 124.195 194.854 118.826C193.59 104.429 191.633 92.5218 186.078 79.1117C181.266 67.5064 166.733 52.5558 152.274 51.1392L150.973 51.0277" stroke="black" stroke-width="2.00561" stroke-miterlimit="10"/>
<path d="M168.323 179.087C168.394 178.884 168.464 178.694 168.538 178.496" stroke="black" stroke-width="2.00561" stroke-miterlimit="10"/>
<path d="M175.374 152.114C176.084 147.938 176.613 143.891 177.026 140.05C177.024 139.978 177.033 139.905 177.05 139.835C179.215 118.388 177.026 102.785 177.026 102.785" stroke="black" stroke-width="2.00561" stroke-miterlimit="10"/>
<path d="M124.859 21.9453L128.163 23.2341C128.163 23.3373 128.163 24.6259 128.304 26.4307C128.457 28.5861 128.8 30.7238 129.328 32.8198C129.035 31.3908 128.609 27.996 130.476 25.6336C130.505 25.5853 130.538 25.5394 130.575 25.4973C131.814 24.0064 133.342 24.597 134.569 25.6212C135.416 26.3378 136.156 27.1724 136.766 28.0992C136.552 25.3399 137.047 22.572 138.203 20.0579C138.957 18.3429 139.958 16.747 141.173 15.3208C139.302 21.7636 141.701 25.9805 141.701 25.9805C148.041 27.4714 152.439 27.1534 155.719 26.5876C158.482 24.0105 157.523 14.7302 157.523 14.7302C160.303 17.0017 159.634 25.7905 159.634 25.7905C159.989 23.4971 159.945 21.1595 159.506 18.8808C160.886 20.8334 161.684 23.1378 161.806 25.5262L161.856 25.5014C162.047 25.4523 162.236 25.3928 162.422 25.3238C162.762 25.1446 163.092 24.9459 163.409 24.7291L165.238 23.4901C162.475 9.39423 152.815 0.531246 137.889 3.13315C136.915 3.30107 135.956 3.54974 135.023 3.87655C125.19 9.00188 124.859 21.9453 124.859 21.9453Z" fill="white"/>
<path d="M210.037 159.225L213.8 147.901C213.883 147.637 214.032 147.399 214.233 147.209C214.434 147.019 214.68 146.883 214.948 146.815C214.981 146.815 215.018 146.815 215.055 146.79C215.092 146.765 215.101 146.79 215.125 146.79C215.212 146.784 215.299 146.784 215.386 146.79C215.803 146.792 216.204 146.951 216.509 147.236C216.815 147.518 217.058 147.861 217.226 148.242C217.392 148.622 217.479 149.034 217.479 149.45C217.479 149.775 217.427 150.099 217.327 150.408C216.501 152.799 215.03 157.115 214.332 159.081" fill="white"/>
<path d="M210.887 159.226L214.943 146.816C214.976 146.816 215.013 146.816 215.05 146.791C215.087 146.766 215.095 146.791 215.12 146.791L217.247 146.378C218.383 146.167 219.519 145.94 220.654 145.729C222.017 145.457 223.389 145.23 224.747 144.903C225.068 144.813 225.398 144.757 225.73 144.738C226.149 144.737 226.552 144.899 226.854 145.188C227.162 145.47 227.407 145.814 227.575 146.197C227.742 146.579 227.827 146.993 227.824 147.41C227.826 147.732 227.775 148.052 227.671 148.356C226.759 151.032 225.02 156.096 224.466 157.632L210.887 159.226Z" fill="white"/>
<path d="M130.699 102.781C131.112 107.377 131.327 112.941 131.471 119.933C131.471 134.801 147.909 147.112 162.517 149.929L189.304 155.979C192.843 156.665 195.978 154.455 198.439 152.989C200.971 151.482 203.565 149.685 205.39 148.351C208.017 146.431 213.076 147.975 212.039 152.556C211.816 153.427 211.394 154.234 210.808 154.915C210.221 155.596 209.485 156.133 208.657 156.483C208.191 156.693 207.71 156.869 207.22 157.012C207.037 157.058 206.874 157.163 206.757 157.31C206.64 157.458 206.575 157.64 206.572 157.828C206.57 158.017 206.629 158.201 206.742 158.352C206.854 158.503 207.014 158.613 207.195 158.664C209.516 159.465 213.766 159.94 220.621 157.425C229.406 154.191 230.087 174.238 218.077 177.728H218.032C206.968 181.073 195.061 180.644 183.625 180.165C170.639 179.673 157.717 178.096 144.993 175.452C138.521 174.081 131.872 172.656 125.949 169.728C115.748 164.685 108.397 158.903 101.405 149.904C93.5579 139.814 90.2085 126.578 88.3169 114.167C86.1528 99.9682 89.1429 87.9788 96.7545 75.7582L97.0354 75.3121" stroke="black" stroke-width="2.00561" stroke-miterlimit="10"/>
<path d="M210.037 159.225L213.8 147.901C213.883 147.637 214.032 147.399 214.233 147.209C214.434 147.019 214.68 146.883 214.948 146.815C214.981 146.815 215.018 146.815 215.055 146.79C215.092 146.765 215.101 146.79 215.125 146.79C215.212 146.784 215.299 146.784 215.386 146.79C215.803 146.792 216.204 146.951 216.509 147.236C216.815 147.518 217.058 147.861 217.226 148.242C217.392 148.622 217.479 149.034 217.479 149.45C217.479 149.775 217.427 150.099 217.327 150.408C216.501 152.799 215.03 157.115 214.332 159.081" stroke="black" stroke-width="2.00561" stroke-miterlimit="10"/>
<path d="M214.943 146.816C214.976 146.816 215.013 146.816 215.05 146.791C215.087 146.766 215.095 146.791 215.12 146.791L217.247 146.378C218.383 146.167 219.519 145.94 220.654 145.729C222.017 145.457 223.389 145.23 224.747 144.903C225.068 144.813 225.398 144.757 225.73 144.738C226.149 144.737 226.552 144.899 226.854 145.188C227.162 145.47 227.407 145.814 227.575 146.197C227.742 146.579 227.827 146.993 227.824 147.41C227.826 147.732 227.775 148.052 227.671 148.356C226.759 151.032 225.02 156.096 224.466 157.632" stroke="black" stroke-width="2.00561" stroke-miterlimit="10"/>
<path d="M163.091 25.1199C163.091 30.4889 162.046 35.6225 159.469 40.3637C157.404 44.1716 154.372 48.0083 150.036 49.268C149.075 49.5451 148.079 49.6843 147.079 49.681C139.719 49.6479 138.571 40.9295 138.571 40.9295" stroke="black" stroke-width="2.00561" stroke-miterlimit="10"/>
<path d="M128.551 28.2351V28.2599C128.892 30.9237 129.478 33.5508 130.302 36.1069C131.286 39.1561 131.519 42.3981 130.98 45.5563L129.836 52.2098C129.784 52.5063 129.649 52.7822 129.447 53.0056C129.246 53.229 128.985 53.3914 128.696 53.4735C114.175 57.6903 101.285 66.9952 93.7848 80.4301C84.4304 97.2061 82.7247 117.41 83.4805 136.243C84.1454 152.569 86.7845 168.8 90.5304 184.688C92.8201 194.398 97.226 203.483 103.433 211.294C109.639 219.106 117.494 225.45 126.437 229.874C138.204 235.75 150.356 240.821 162.81 245.052C169.402 247.235 175.425 250.86 180.441 255.663C185.457 260.466 189.339 266.326 191.806 272.818L221.071 350.635C222.147 353.508 224.268 355.868 227.01 357.243L255.053 371.331C258.594 373.103 262.634 373.616 266.506 372.785C267.509 372.568 268.425 372.054 269.132 371.31C269.84 370.565 270.307 369.625 270.473 368.612C270.639 367.598 270.496 366.559 270.062 365.628C269.628 364.697 268.924 363.918 268.042 363.393L253.719 354.873L234.023 254.464C232.637 245.506 229.327 236.955 224.322 229.398C219.317 221.84 212.734 215.457 205.026 210.686C203.999 210.06 202.928 209.508 201.821 209.034L159.126 190.495" stroke="black" stroke-width="2.00561" stroke-miterlimit="10"/>
<path d="M140.289 2.16264C142.571 1.61864 144.934 1.49825 147.26 1.80746C147.355 1.80957 147.45 1.81787 147.545 1.83224" stroke="black" stroke-width="2.00561" stroke-miterlimit="10"/>
<path d="M150.631 51.271C150.631 51.271 158.185 68.5881 144.676 69.443C132.554 70.2194 128.106 53.749 128.106 53.749" stroke="black" stroke-width="2.00561" stroke-miterlimit="10"/>
<path d="M129.501 33.45C129.415 33.132 128.114 28.4362 130.6 25.4791C133.086 22.5221 136.456 27.5937 136.795 28.1017C136.134 20.8207 141.193 15.2989 141.193 15.2989C139.327 21.7458 141.73 25.9582 141.73 25.9582C150.969 28.1223 156.053 26.4745 159.659 25.7641C160.013 23.472 159.968 21.1359 159.526 18.859C160.911 20.8065 161.709 23.1093 161.827 25.4957H161.885C163.257 25.131 164.558 24.5375 165.734 23.7404L167.563 22.5014C164.796 8.41005 155.14 -0.461187 140.215 2.14071C125.289 4.74261 124.872 21.9069 124.872 21.9069L128.196 23.1994C128.196 23.1994 128.167 28.8657 129.501 33.45Z" stroke="black" stroke-width="2.00561" stroke-miterlimit="10"/>
<path d="M157.301 32.7154V39.5671C157.3 39.6505 157.28 39.7327 157.242 39.8066C157.204 39.8809 157.149 39.945 157.081 39.9941C157.014 40.0433 156.936 40.0755 156.853 40.0891C156.771 40.1023 156.687 40.0961 156.607 40.0709C156.068 39.8925 155.573 39.6026 155.153 39.2201" stroke="black" stroke-width="2.00561" stroke-miterlimit="10"/>
<path d="M161.397 37.917C159.236 37.0745 158.434 33.9555 159.605 30.9505C160.777 27.9456 163.479 26.1928 165.64 27.0353C167.801 27.8778 168.603 30.9968 167.432 34.0018C166.26 37.0068 163.558 38.7595 161.397 37.917Z" stroke="black" stroke-width="2.00561" stroke-miterlimit="10"/>
<path d="M148.393 39.8772C146.231 39.0347 145.429 35.9157 146.601 32.9107C147.772 29.9057 150.474 28.1529 152.635 28.9955C154.797 29.838 155.599 32.9569 154.427 35.9619C153.256 38.9669 150.554 40.7197 148.393 39.8772Z" stroke="black" stroke-width="2.00561" stroke-miterlimit="10"/>
<path d="M159.118 33.0705C159.118 33.0705 157.838 31.6085 155.153 33.3224" stroke="black" stroke-width="2.00561" stroke-miterlimit="10"/>
<path d="M151.238 48.8351C151.238 48.8351 150.309 51.9821 147.575 62.1832" stroke="black" stroke-width="2.00561" stroke-miterlimit="10"/>
<path d="M219.688 346.959L203.581 338.265C202.657 337.765 201.871 337.046 201.288 336.173C200.706 335.299 200.346 334.296 200.239 333.251C197.563 306.964 198.381 290.345 198.381 290.345" stroke="black" stroke-width="2.00561" stroke-miterlimit="10"/>
<path d="M234.309 212.147L296.296 168.828" stroke="black" stroke-width="2.00561" stroke-miterlimit="10"/>
<path d="M237.819 224.084L296.296 183.213" stroke="black" stroke-width="2.00561" stroke-miterlimit="10"/>
<path d="M0.703293 141.744V177.209C0.703293 178.835 1.17576 180.426 2.06288 181.789C2.95 183.152 4.21378 184.228 5.70058 184.886L49.6851 204.363L63.1324 224.799C63.4785 225.306 63.9765 225.689 64.5551 225.894C65.1333 226.098 65.7623 226.114 66.35 225.938C66.9377 225.761 67.454 225.403 67.8245 224.914C68.1949 224.425 68.4002 223.83 68.4105 223.217V212.661L72.9205 214.655C73.9236 215.094 75.0202 215.277 76.1113 215.187C77.202 215.097 78.2539 214.737 79.1716 214.14C80.0893 213.543 80.8443 212.727 81.3688 211.766C81.8929 210.805 82.1704 209.728 82.1758 208.634V179.018C82.1754 175.324 81.0946 171.71 79.0671 168.623C77.0397 165.535 74.1541 163.107 70.7646 161.639L10.3179 135.434C9.27138 134.98 8.12821 134.792 6.99163 134.89C5.85506 134.988 4.76018 135.366 3.80656 135.993C2.85294 136.619 2.06991 137.472 1.52805 138.476C0.986198 139.48 0.702881 140.603 0.703293 141.744Z" fill="#2E2E2E"/>
<path d="M54.6582 188.097C52.4916 183.918 53.0781 179.315 55.9678 177.817C58.8576 176.319 62.9566 178.493 65.1232 182.673C67.2894 186.853 66.7034 191.455 63.8136 192.953C60.9238 194.451 56.8248 192.277 54.6582 188.097Z" fill="white"/>
<path d="M35.8739 180.057C33.7077 175.877 34.2937 171.274 37.1835 169.776C40.0732 168.278 44.1723 170.452 46.3389 174.632C48.5055 178.812 47.919 183.414 45.0292 184.912C42.1395 186.41 38.0405 184.236 35.8739 180.057Z" fill="white"/>
<path d="M17.7219 171.374C15.5553 167.194 16.1414 162.591 19.0311 161.094C21.9209 159.596 26.0199 161.77 28.1865 165.949C30.3531 170.129 29.7667 174.732 26.8769 176.23C23.9876 177.727 19.8885 175.553 17.7219 171.374Z" fill="white"/>
</svg>
