<svg width="26" height="36" viewBox="0 0 26 36" fill="none" xmlns="http://www.w3.org/2000/svg">
<path d="M17.3367 1.50006C17.3367 1.13258 17.1172 0.800607 16.7791 0.656653C16.441 0.5127 16.0495 0.58459 15.7847 0.8393L12.5251 3.97351C7.67182 8.6401 3.57097 14.0305 0.368444 19.9528C0.293043 20.086 0.25 20.2399 0.25 20.4038C0.25 20.9101 0.660406 21.3205 1.16667 21.3205H9.06833V34.5001C9.06833 34.8631 9.28254 35.1919 9.61458 35.3386C9.94662 35.4852 10.3339 35.4222 10.6023 35.1777L12.0607 33.8492C17.166 29.1986 21.4986 23.7651 24.896 17.7526L25.7981 16.156C25.9584 15.8722 25.956 15.5246 25.7917 15.2431C25.6274 14.9615 25.326 14.7884 25 14.7884H17.3367V1.50006Z" fill="black"/>
</svg>
