<svg width="32" height="35" viewBox="0 0 32 35" fill="none" xmlns="http://www.w3.org/2000/svg">
<path fill-rule="evenodd" clip-rule="evenodd" d="M5.45866 6.08333C5.45866 2.79264 8.12629 0.125 11.417 0.125C13.2599 0.125 14.9074 0.961674 16.0003 2.27589C17.0933 0.961674 18.7408 0.125 20.5837 0.125C23.8744 0.125 26.542 2.79264 26.542 6.08333C26.542 7.46615 26.0709 8.73895 25.2805 9.75H27.0003C29.5316 9.75 31.5837 11.802 31.5837 14.3333V16.625C31.5837 17.3844 30.968 18 30.2087 18H17.9253C17.6216 18 17.3753 17.7538 17.3753 17.45V11.105C16.8566 10.7729 16.3927 10.3626 16.0003 9.89077C15.6079 10.3626 15.1441 10.7729 14.6253 11.105V17.45C14.6253 17.7538 14.3791 18 14.0753 18H1.79199C1.0326 18 0.416992 17.3844 0.416992 16.625V14.3333C0.416992 11.802 2.46902 9.75 5.00033 9.75H6.72014C5.92972 8.73895 5.45866 7.46615 5.45866 6.08333ZM14.6253 6.08333C14.6253 4.31142 13.1889 2.875 11.417 2.875C9.64508 2.875 8.20866 4.31142 8.20866 6.08333C8.20866 7.85525 9.64508 9.29167 11.417 9.29167C13.1889 9.29167 14.6253 7.85525 14.6253 6.08333ZM17.3753 6.08333C17.3753 7.85525 18.8117 9.29167 20.5837 9.29167C22.3556 9.29167 23.792 7.85525 23.792 6.08333C23.792 4.31142 22.3556 2.875 20.5837 2.875C18.8117 2.875 17.3753 4.31142 17.3753 6.08333Z" fill="black"/>
<path d="M14.6253 21.025C14.6253 20.7213 14.3791 20.475 14.0753 20.475H4.35685C3.61315 20.475 2.97765 21.0109 2.85205 21.7439C2.44496 24.1195 2.44496 26.5471 2.85205 28.9228L3.26328 31.3227C3.54018 32.9386 4.85257 34.1765 6.48188 34.3586L8.43461 34.5768C10.3063 34.786 12.1844 34.9173 14.0643 34.9708C14.3723 34.9795 14.6253 34.7313 14.6253 34.4232L14.6253 21.025Z" fill="black"/>
<path d="M17.9364 34.9708C17.6284 34.9795 17.3753 34.7313 17.3753 34.4232L17.3753 21.025C17.3753 20.7213 17.6216 20.475 17.9253 20.475H27.6438C28.3875 20.475 29.023 21.0109 29.1486 21.7439C29.5557 24.1195 29.5557 26.5471 29.1486 28.9228L28.7374 31.3227C28.4605 32.9386 27.1481 34.1765 25.5188 34.3586L23.566 34.5768C21.6944 34.786 19.8162 34.9173 17.9364 34.9708Z" fill="black"/>
</svg>
