<svg width="759" height="564" viewBox="0 0 759 564" fill="none" xmlns="http://www.w3.org/2000/svg">
<path d="M536.696 504.002L519.583 520.153C519.138 520.574 518.783 521.082 518.541 521.645C518.298 522.207 518.173 522.814 518.172 523.427V549.156C518.171 550.275 518.588 551.354 519.341 552.182C520.094 553.009 521.128 553.527 522.242 553.633L555.921 556.906L574.488 539.379C574.936 538.959 575.294 538.453 575.538 537.889C575.783 537.326 575.908 536.719 575.908 536.105V510.22C575.909 509.097 575.49 508.016 574.734 507.185C573.977 506.355 572.939 505.838 571.821 505.734L540.203 502.799C539.566 502.74 538.925 502.817 538.32 503.024C537.716 503.232 537.162 503.565 536.696 504.002Z" fill="#EDA35E"/>
<path d="M534.904 499.515L514.821 518.472C514.298 518.966 513.881 519.562 513.597 520.223C513.312 520.884 513.166 521.597 513.167 522.317V552.505C513.165 553.818 513.654 555.084 514.536 556.057C515.419 557.028 516.632 557.636 517.939 557.762L557.463 561.607L579.26 541.031C579.783 540.536 580.2 539.941 580.485 539.279C580.769 538.618 580.915 537.905 580.914 537.186V506.807C580.913 505.49 580.421 504.222 579.534 503.249C578.646 502.276 577.428 501.67 576.117 501.55L539.017 498.086C538.269 498.018 537.515 498.109 536.806 498.356C536.097 498.602 535.448 498.997 534.904 499.515Z" fill="#EDA35E"/>
<path d="M640.391 331.789V357.665C640.39 358.278 640.264 358.884 640.021 359.447C639.778 360.01 639.424 360.517 638.979 360.938L620.395 378.466L586.699 375.193C585.724 375.105 584.809 374.69 584.101 374.015C589.669 373.339 594.354 370.75 595.792 367.953C598 363.623 597.411 356.071 587.998 354.755C586.176 354.512 584.373 354.141 582.603 353.647V344.978C582.602 344.367 582.726 343.76 582.969 343.199C583.211 342.637 583.567 342.131 584.014 341.713L601.118 325.545C601.582 325.119 602.129 324.792 602.725 324.587C603.321 324.381 603.953 324.3 604.582 324.35L636.199 327.294C637.338 327.371 638.405 327.879 639.184 328.714C639.962 329.548 640.393 330.647 640.391 331.789Z" fill="#EDA35E"/>
<path d="M645.404 328.376V358.746C645.403 359.47 645.254 360.186 644.966 360.85C644.679 361.514 644.26 362.112 643.733 362.609L621.953 383.168L582.429 379.331C581.121 379.204 579.908 378.594 579.026 377.621C578.143 376.647 577.656 375.38 577.657 374.066V373.945C579.807 374.288 581.996 374.311 584.152 374.014C589.721 373.338 594.406 370.749 595.843 367.952C598.052 363.622 597.463 356.07 588.049 354.754C586.227 354.511 584.424 354.14 582.654 353.646C578.428 352.355 578.168 350.944 578.168 350.944L577.649 351.273V343.912C577.643 343.194 577.786 342.482 578.07 341.821C578.353 341.16 578.769 340.566 579.294 340.075L599.385 321.11C599.931 320.595 600.58 320.202 601.289 319.956C601.998 319.709 602.751 319.615 603.499 319.681L640.598 323.145C641.904 323.269 643.117 323.873 644.005 324.838C644.893 325.804 645.391 327.065 645.404 328.376Z" fill="#EDA35E"/>
<path d="M646.652 410.188L626.431 429.24C625.904 429.738 625.484 430.337 625.196 431.003C624.909 431.669 624.76 432.386 624.76 433.111V463.516C624.758 464.839 625.249 466.116 626.138 467.095C627.027 468.075 628.249 468.689 629.566 468.816L669.402 472.687L691.355 451.972C691.883 451.475 692.303 450.875 692.59 450.209C692.878 449.544 693.026 448.826 693.027 448.101V417.531C693.027 416.205 692.533 414.925 691.638 413.944C690.745 412.963 689.516 412.353 688.194 412.231L650.835 408.767C650.076 408.69 649.311 408.778 648.589 409.023C647.867 409.268 647.206 409.665 646.652 410.188Z" fill="#EDA35E"/>
<path d="M644.53 404.888L620.793 427.291C620.176 427.875 619.684 428.578 619.347 429.359C619.011 430.139 618.837 430.979 618.836 431.829V467.508C618.837 469.06 619.416 470.557 620.46 471.706C621.503 472.855 622.937 473.576 624.482 473.726L671.194 478.264L696.949 453.947C697.569 453.365 698.063 452.662 698.4 451.881C698.736 451.1 698.909 450.259 698.906 449.409V413.505C698.895 411.952 698.306 410.46 697.254 409.318C696.203 408.176 694.762 407.468 693.217 407.33L649.371 403.251C648.495 403.168 647.611 403.272 646.777 403.553C645.943 403.836 645.177 404.29 644.53 404.888Z" fill="#EDA35E"/>
<path d="M701.469 428.754L680.425 448.62C679.878 449.138 679.442 449.762 679.145 450.455C678.847 451.147 678.693 451.893 678.693 452.647V484.282C678.693 485.659 679.206 486.986 680.131 488.006C681.057 489.026 682.328 489.665 683.699 489.798L725.12 493.825L747.956 472.279C748.503 471.761 748.939 471.137 749.237 470.444C749.535 469.751 749.688 469.006 749.688 468.252V436.392C749.685 435.012 749.168 433.681 748.238 432.661C747.308 431.641 746.031 431.005 744.657 430.876L705.782 427.247C704.997 427.175 704.206 427.273 703.462 427.533C702.718 427.793 702.039 428.209 701.469 428.754Z" fill="#EDA35E"/>
<path d="M699.278 423.24L674.58 446.553C673.937 447.161 673.425 447.894 673.075 448.707C672.725 449.52 672.545 450.396 672.545 451.281V488.415C672.544 490.029 673.144 491.584 674.228 492.778C675.312 493.972 676.802 494.721 678.408 494.876L726.99 499.604L753.836 474.299C754.48 473.692 754.992 472.958 755.341 472.145C755.691 471.332 755.871 470.456 755.871 469.571V432.203C755.87 430.585 755.264 429.024 754.174 427.828C753.084 426.631 751.586 425.885 749.974 425.734L704.344 421.491C703.424 421.406 702.496 421.519 701.623 421.82C700.75 422.121 699.95 422.605 699.278 423.24Z" fill="#EDA35E"/>
<path d="M640.694 451.712L611.189 479.562C610.42 480.287 609.806 481.162 609.387 482.133C608.969 483.104 608.754 484.151 608.756 485.209V529.565C608.763 531.491 609.483 533.345 610.776 534.772C612.07 536.198 613.846 537.095 615.762 537.29L673.836 542.936L705.878 512.704C706.645 511.978 707.256 511.102 707.675 510.131C708.093 509.16 708.31 508.115 708.311 507.058V462.424C708.303 460.492 707.577 458.631 706.274 457.204C704.972 455.777 703.185 454.884 701.262 454.699L646.756 449.625C645.655 449.522 644.546 449.656 643.501 450.016C642.455 450.376 641.498 450.954 640.694 451.712Z" fill="#EDA35E"/>
<path d="M637.602 443.98L602.962 476.663C602.06 477.514 601.341 478.541 600.849 479.681C600.358 480.82 600.104 482.048 600.104 483.288V535.343C600.103 537.607 600.945 539.79 602.465 541.467C603.987 543.143 606.078 544.193 608.331 544.41L676.477 551.035L714.061 515.529C714.964 514.678 715.683 513.651 716.174 512.512C716.666 511.372 716.919 510.145 716.919 508.904V456.554C716.92 454.285 716.074 452.098 714.546 450.421C713.017 448.743 710.917 447.697 708.658 447.487L644.721 441.538C643.429 441.414 642.125 441.567 640.897 441.989C639.669 442.41 638.546 443.089 637.602 443.98Z" fill="#EDA35E"/>
<path d="M257.878 505.986C253.028 507.733 247.949 508.763 242.801 509.043C169.685 513.538 101.072 473.537 52.7488 428.757C50.5405 426.713 48.4188 424.617 46.375 422.495" stroke="black" stroke-width="4.59" stroke-miterlimit="10"/>
<path d="M328.215 477.26C332.441 483.72 342.357 481.139 342.357 481.139C397.659 469.795 381.526 396.574 334.744 362.593" stroke="black" stroke-width="4.59" stroke-miterlimit="10"/>
<path d="M392.628 302.545C372.58 321.77 354.68 333.435 337.905 340.346L344.833 291.91C269.275 246.722 249.166 297.106 249.166 297.106C246.274 301.835 244.931 357.934 244.55 377.081C244.455 377.081 242.056 377.081 241.952 377.081C194.322 374.535 151.273 330.967 151.273 330.967C175.34 270.537 261.255 195.871 261.255 195.871C320.888 154.052 366.405 168.116 366.405 168.116C352.385 169.129 371.489 207.952 371.489 207.952C399.642 232.399 410.034 195.888 410.034 195.888C437.279 261.098 392.628 302.545 392.628 302.545Z" fill="#353642"/>
<path d="M441.895 274.338C441.895 274.338 436.95 337.868 393.971 335.764C393.971 335.764 377.854 318.331 378.261 305.073C378.669 291.814 414.633 209.016 414.633 209.016C414.633 209.016 437.946 267.159 441.895 274.338Z" fill="#353642"/>
<path d="M50.3245 426.236V426.452L53.9964 429.916C53.9964 429.916 52.4722 431.328 50.3245 433.38C47.5274 435.978 43.6737 439.563 40.7985 442.3C35.819 447.028 10.3586 472.48 3.56055 449.332C4.90285 441.235 10.0469 424.582 29.7657 404.352C57.8068 375.531 53.9011 379.108 60.9417 379.584C64.1892 379.792 68.398 381.697 72.0005 383.698C62.8902 387.491 49.0775 398.013 50.3245 426.236Z" fill="#EDA35E"/>
<path d="M79.6127 388.486C79.6127 388.486 52.0479 391.084 50.3245 426.235V426.451C50.212 428.616 50.212 430.894 50.3245 433.319C47.5274 435.917 43.6737 439.502 40.7985 442.238C35.819 446.967 10.3586 472.418 3.56055 449.27C4.90285 441.173 10.0469 424.52 29.7657 404.29C57.8068 375.47 53.9011 379.046 60.9417 379.523C64.1892 379.73 68.398 381.636 72.0005 383.636C74.6193 385.121 77.1602 386.74 79.6127 388.486Z" fill="#EDA35E"/>
<path d="M337.724 341.808C368.9 322.263 418.92 297.235 418.799 241.049C418.799 227.704 417.422 216.801 414.469 206.479L414.183 205.491C413.151 202.149 411.761 198.93 410.035 195.887" stroke="black" stroke-width="4.59" stroke-miterlimit="10"/>
<path d="M187.343 439.067C180.129 432.927 173.616 427.004 169.286 422.916L169.217 422.847C165.805 419.669 163.761 417.651 163.761 417.651C160.86 413.693 158.28 409.857 155.967 406.168C155.922 406.112 155.889 406.047 155.872 405.977C139.054 378.785 138.041 357.117 153.707 325.24C153.798 325.01 153.902 324.784 154.019 324.565C155.751 321.101 157.665 317.481 159.778 313.74C191.136 258.316 283.139 155.045 362.508 168.104" stroke="black" stroke-width="4.59" stroke-miterlimit="10"/>
<path d="M52.775 428.73C36.321 449.15 24.7772 456.398 16.9746 458C9.17189 459.603 1.98409 452.683 3.11855 444.681C6.73843 419.394 36.1651 389.145 50.6446 375.618C52.8625 373.532 55.7081 372.239 58.7383 371.941C61.7684 371.643 64.8115 372.357 67.3931 373.973L74.6415 378.484C96.0577 391.838 118.409 404.863 140.882 416.865C161.484 427.881 184.121 442.04 208.508 438.836" stroke="black" stroke-width="4.59" stroke-miterlimit="10"/>
<path d="M347.908 239.083C348.187 249.134 347.93 259.194 347.137 269.219C344.392 305.496 336.979 341.279 332.9 377.409C330.302 400.531 328.708 423.757 328.397 447.026C328.137 466.563 328.085 481.467 328.665 501.004C329.037 513.579 336.147 521.606 346.972 526.984C356.091 531.505 362.448 530.587 368.129 539.706C379.811 558.498 356.871 559.832 347.535 557.355C321.347 550.427 282.819 546.625 267.863 520.584C255.938 499.8 254.423 486.213 251.409 462.987C248.118 437.821 245.347 412.551 244.758 387.16C243.849 346.276 247.019 280.512 261.671 241.845" stroke="black" stroke-width="4.59" stroke-miterlimit="10"/>
<path d="M675.031 432.99L674.892 433.129L671.645 432.8L671.766 432.687L675.031 432.99Z" fill="#EDA35E"/>
<path d="M623.513 428.564L650.194 431.206L623.513 428.781V428.564Z" fill="#EDA35E"/>
<path d="M675.031 432.989L674.892 433.127L671.644 432.798L671.289 433.127L669.739 432.989L670.094 432.66L670.207 432.538L671.766 432.686L675.031 432.989Z" fill="#EDA35E"/>
<path d="M675.031 432.989L674.892 433.127L671.645 432.798L670.095 432.66L670.207 432.538L671.766 432.686L675.031 432.989Z" fill="#EDA35E"/>
<path d="M606.902 479.32L646.349 483.173L606.902 479.632V479.32Z" fill="#EDA35E"/>
<path d="M683.093 485.8L682.885 486.008L678.079 485.523L677.56 486.008L675.265 485.8L675.784 485.315L675.957 485.142L678.261 485.35L683.093 485.8Z" fill="#EDA35E"/>
<path d="M683.093 485.8L682.885 486.008L678.079 485.523L675.784 485.315L675.957 485.142L678.261 485.35L683.093 485.8Z" fill="#EDA35E"/>
<path d="M414.165 205.484C414.165 205.484 439.643 290.474 469.442 310.27C497.517 328.915 535.214 320.827 564.823 310.643C572.998 307.828 581.216 305.083 589.937 305.213C602.208 305.386 627.218 308.105 630.466 322.386" stroke="black" stroke-width="4.59" stroke-miterlimit="10"/>
<path d="M380.677 313.325C424.644 402.358 502.601 384.597 542.731 368.506C546.367 367.027 550.31 366.462 554.214 366.861C558.094 367.285 561.142 368.931 564.754 370.325C570.894 372.75 577.83 374.49 584.49 374.04C591.149 373.59 599.264 368.515 596.458 360.66C594.224 354.399 587.261 354.849 581.926 353.646C576.592 352.442 575.31 344.665 580.298 342.145C580.36 342.126 580.416 342.093 580.463 342.05" stroke="black" stroke-width="4.59" stroke-miterlimit="10"/>
<path d="M580.914 502.008L557.463 524.169L513.167 520.047L536.644 497.895L580.914 502.008Z" stroke="black" stroke-width="4.59" stroke-linecap="square" stroke-linejoin="round"/>
<path d="M557.463 524.171V561.617L513.167 557.313V520.049L557.463 524.171Z" stroke="black" stroke-width="4.59" stroke-linecap="square" stroke-linejoin="round"/>
<path d="M580.914 502.008V539.48L557.463 561.615V524.169L580.914 502.008Z" stroke="black" stroke-width="4.59" stroke-linecap="square" stroke-linejoin="round"/>
<path d="M717.282 448.612L677.152 486.534L601.377 479.477L619.113 462.728V472.176L671.289 477.26L698.906 451.176V446.889L717.282 448.612Z" stroke="black" stroke-width="4.59" stroke-linecap="square" stroke-linejoin="round"/>
<path d="M677.152 486.526V550.584L601.377 543.223V479.485L677.152 486.526Z" stroke="black" stroke-width="4.59" stroke-linecap="square" stroke-linejoin="round"/>
<path d="M717.274 448.621V512.722L677.152 550.584V486.526L717.274 448.621Z" stroke="black" stroke-width="4.59" stroke-linecap="square" stroke-linejoin="round"/>
<path d="M698.907 407.044L671.29 433.128L619.113 428.287L646.756 402.195L698.907 407.044Z" stroke="black" stroke-width="4.59" stroke-linecap="square" stroke-linejoin="round"/>
<path d="M671.29 442.705V433.127L619.113 428.286V468.555" stroke="black" stroke-width="4.59" stroke-linecap="square" stroke-linejoin="round"/>
<path d="M698.906 407.046V451.177L671.289 477.261V433.13L698.906 407.046Z" stroke="black" stroke-width="4.59" stroke-linecap="square" stroke-linejoin="round"/>
<path d="M699.677 422.58L700.863 421.463L755.975 426.59L726.783 454.189L718.599 453.419" stroke="black" stroke-width="4.59" stroke-linecap="square" stroke-linejoin="round"/>
<path d="M718.115 453.367L726.783 454.189V500.789L717.283 499.871" stroke="black" stroke-width="4.59" stroke-linecap="square" stroke-linejoin="round"/>
<path d="M755.967 426.588V473.231L726.774 500.787V454.17L755.967 426.588Z" stroke="black" stroke-width="4.59" stroke-linecap="square" stroke-linejoin="round"/>
<path d="M645.396 323.759L621.944 345.92L577.648 341.798L601.126 319.637L645.396 323.759Z" stroke="black" stroke-width="4.59" stroke-linecap="square" stroke-linejoin="round"/>
<path d="M577.641 373.825V379.073L621.937 383.377V345.931L580.464 342.068L577.641 341.809V345.056V348.425" stroke="black" stroke-width="4.59" stroke-linecap="square" stroke-linejoin="round"/>
<path d="M645.397 323.761V361.233L621.945 383.368V345.922L645.397 323.761Z" stroke="black" stroke-width="4.59" stroke-linecap="square" stroke-linejoin="round"/>
<path d="M418.799 163.196C422.826 168.591 429.892 169.665 434.577 165.95" stroke="black" stroke-width="4.59" stroke-miterlimit="10"/>
<path d="M482.821 109.427C481.086 113.745 478.036 117.406 474.104 119.893C470.172 122.38 465.556 123.566 460.912 123.283C460.809 121.385 460.247 119.539 459.275 117.905C455.109 111.116 451.195 122.07 436.109 111.479C415.213 96.7573 405.644 101.953 405.644 101.953C404.778 102.404 404.093 107.617 403.86 108.526C402.431 113.809 401.01 119.065 399.53 124.339C398.664 127.561 397.798 130.756 396.932 133.952C396.709 133.36 396.452 132.782 396.161 132.22C395.208 124.608 392.861 115.446 384.34 117.94C382.613 118.477 381.037 119.414 379.741 120.676C373.428 126.79 376.407 134.073 381.153 139.849C382.297 141.594 383.627 143.208 385.119 144.664C383.933 146.396 379.101 153.324 379.101 153.324C378.598 154.017 367.903 137.425 367.176 135.675C366.334 131.552 366.19 127.316 366.751 123.144C369.15 105.997 379.144 87.1447 394.463 79.4459C398.274 77.5407 397.529 75.0293 398.257 71.7558C398.279 71.5653 398.364 71.3869 398.499 71.2501C398.633 71.1124 398.81 71.0241 399 70.9981C399.191 70.9721 399.385 71.0111 399.551 71.1072C399.718 71.2042 399.847 71.3531 399.919 71.5307C403.557 77.0904 414.364 78.2508 414.364 78.2508C451.472 74.5184 462.999 93.0854 470.187 97.1729C473.087 98.7776 476.445 99.3483 479.713 98.7924C479.734 99.8497 480.046 100.881 480.614 101.773C481.182 102.665 481.985 103.384 482.934 103.85L482.484 105.582C482.157 106.865 482.276 108.221 482.821 109.427Z" fill="#EDA35E"/>
<path d="M460.886 123.284C465.522 123.566 470.131 122.385 474.059 119.906C477.987 117.428 481.037 113.777 482.778 109.471C483.457 107.825 483.986 106.12 484.355 104.379L484.077 104.301C483.679 104.204 483.295 104.055 482.934 103.859C481.985 103.393 481.182 102.674 480.614 101.782C480.046 100.89 479.734 99.8593 479.713 98.8019C479.684 98.2182 479.749 97.6337 479.903 97.0699L482.146 88.7736C482.146 88.7736 474.638 92.7572 467.597 88.687C460.557 84.6168 450.511 66.1017 411.775 69.7649C411.775 69.7649 403.262 68.9769 399.651 63.3132C399.576 63.1392 399.445 62.9945 399.28 62.901C399.114 62.8083 398.923 62.7728 398.735 62.7988C398.547 62.8256 398.373 62.9131 398.24 63.0482C398.106 63.1833 398.021 63.3582 397.997 63.547C397.27 66.8205 395.676 68.9682 391.874 70.8734C376.52 78.5808 366.518 97.4336 364.162 114.572C363.276 121.727 364.31 128.991 367.159 135.616C367.886 137.348 378.581 153.957 379.084 153.265C379.084 153.265 383.916 146.337 385.102 144.605L385.388 144.224L385.016 143.886C383.632 142.609 382.335 141.241 381.136 139.79C376.39 134.013 373.411 126.73 379.724 120.616C381.02 119.355 382.596 118.417 384.323 117.88C392.844 115.386 395.191 124.548 396.144 132.16C396.327 133.613 396.353 135.083 396.222 136.542L396.915 133.944C397.781 130.749 398.647 127.553 399.513 124.332C400.959 119.058 402.379 113.801 403.842 108.518C404.076 107.609 404.795 102.396 405.626 101.945C405.626 101.945 415.196 96.8014 436.092 111.471C451.178 122.063 455.092 111.108 459.258 117.897C460.231 119.53 460.792 121.376 460.895 123.275C460.916 123.885 460.899 124.495 460.843 125.102C460.856 125.183 460.856 125.264 460.843 125.345C460.721 126.67 460.548 127.995 460.375 129.285C458.643 141.738 455.266 154.512 448.623 165.311C440.57 178.396 422.765 189.81 407.436 180.795C402.665 177.98 398.577 173.979 394.923 169.84" stroke="black" stroke-width="4.59" stroke-miterlimit="10"/>
<path d="M449.619 149.907C450.576 148.043 450.102 145.891 448.562 145.102C447.022 144.311 444.998 145.18 444.041 147.044C443.085 148.908 443.558 151.06 445.098 151.85C446.638 152.641 448.663 151.771 449.619 149.907Z" fill="black"/>
<path d="M425.459 145.432C426.415 143.568 425.943 141.417 424.402 140.626C422.862 139.835 420.837 140.705 419.881 142.569C418.924 144.432 419.398 146.584 420.938 147.375C422.479 148.166 424.502 147.295 425.459 145.432Z" fill="black"/>
<path d="M429.571 152.994C429.571 152.994 436.958 158.813 438.171 154.128C438.552 152.682 442.717 138.618 442.717 138.618C442.717 138.618 450.303 132.695 459.535 139.328" stroke="black" stroke-width="4.59" stroke-miterlimit="10"/>
<path d="M434.447 133.233C434.447 133.233 422.392 124.729 412.347 132.818" stroke="black" stroke-width="4.59" stroke-miterlimit="10"/>
<path d="M375.957 149.323L369.705 169.483L362.56 168.141C358.066 175.64 363.859 199.88 371.523 207.977C393.39 231.151 406.839 204.4 406.839 204.4L410.034 195.862L414.667 183.512" stroke="black" stroke-width="4.59" stroke-miterlimit="10"/>
<path d="M565.352 87.5491C566.981 89.0126 568.286 90.8018 569.18 92.8005C570.076 94.7992 570.542 96.9634 570.548 99.1535V101.63C570.554 103.381 570.928 105.112 571.642 106.709C572.358 108.307 573.398 109.739 574.699 110.91C576 112.082 577.532 112.969 579.195 113.513C580.859 114.059 582.618 114.25 584.36 114.075C590.829 113.416 595.558 107.536 595.558 100.998V99.1448C595.552 96.9711 596.003 94.8209 596.877 92.8317C597.753 90.8416 599.036 89.0576 600.641 87.5924" stroke="#242424" stroke-width="4.59" stroke-linejoin="round"/>
<path d="M565.352 87.5491C566.981 89.0126 568.286 90.8018 569.18 92.8005C570.076 94.7992 570.542 96.9634 570.548 99.1535V101.63C570.554 103.381 570.928 105.112 571.642 106.709C572.358 108.307 573.398 109.739 574.699 110.91C576 112.082 577.532 112.969 579.195 113.513C580.859 114.059 582.618 114.25 584.36 114.075C590.829 113.416 595.558 107.536 595.558 100.998V99.1448C595.552 96.9711 596.003 94.8209 596.877 92.8317C597.753 90.8416 599.036 89.0576 600.641 87.5924" stroke="#242424" stroke-width="4.59" stroke-linejoin="round"/>
<path d="M565.352 87.5517C564.522 86.8295 563.623 86.1912 562.667 85.6465C555.344 81.443 549.501 75.0753 545.941 67.4181C542.38 59.7618 541.275 51.1901 542.779 42.8808C544.283 34.5716 548.322 26.9317 554.341 21.0083C560.359 15.0857 568.063 11.1705 576.396 9.79965C584.729 8.42964 593.28 9.67147 600.88 13.3546C608.478 17.0377 614.751 22.9828 618.837 30.3723C622.923 37.7628 624.622 46.2357 623.7 54.6299C622.78 63.024 619.284 70.9271 613.692 77.255C613.605 77.339 613.527 77.4316 613.458 77.5321C610.503 80.777 607.058 83.5387 603.248 85.7158C602.308 86.238 601.436 86.8719 600.65 87.6037" stroke="#242424" stroke-width="4.59" stroke-linejoin="round"/>
<path d="M578.671 84.8852C576.03 80.0875 571.579 73.7311 568.444 69.2019C565.034 64.3982 562.249 59.1806 560.156 53.6746C559.879 53.0805 559.772 52.4206 559.844 51.7694C559.888 51.4463 560.054 51.1519 560.309 50.9484C560.564 50.7457 560.888 50.6487 561.213 50.6782C561.793 50.7908 562.079 51.397 562.382 51.9252C563.627 54.3994 565.401 56.5696 567.578 58.2817C568.799 59.2256 570.531 60.0137 571.804 59.1477C572.19 58.8091 572.501 58.3925 572.714 57.9249C572.928 57.4581 573.04 56.9506 573.042 56.4371C573.425 52.7904 572.472 49.128 570.358 46.1317C569.492 44.9539 567.985 43.8108 566.764 44.5816C565.543 45.3523 565.898 47.2575 566.625 48.5392C567.918 50.9146 569.681 53.0025 571.807 54.6739C573.933 56.3462 576.378 57.5681 578.992 58.2644C580.273 58.6939 581.658 58.7086 582.949 58.3076C583.666 57.9812 584.292 57.485 584.774 56.8614C585.255 56.2379 585.577 55.507 585.712 54.7311C585.97 53.1723 585.836 51.5745 585.322 50.0806C584.612 47.7511 583.235 45.3696 580.923 44.5902C580.199 44.3088 579.395 44.3088 578.671 44.5902C578.191 44.8474 577.792 45.2354 577.521 45.7082C577.25 46.1811 577.118 46.7214 577.138 47.2661C577.196 48.3564 577.529 49.4147 578.108 50.3405C579.451 52.6821 581.34 54.6635 583.617 56.1149C585.893 57.5655 588.486 58.4428 591.176 58.6714C592.972 58.9268 594.799 58.4904 596.286 57.4503C596.906 56.8753 597.405 56.1825 597.754 55.4117C598.104 54.6419 598.297 53.8097 598.321 52.9644C598.517 50.4297 597.802 47.9079 596.303 45.8546C596 45.4476 595.541 44.9886 595.047 45.1531C594.554 45.3177 594.415 45.8719 594.355 46.3655C594.129 48.3054 594.291 50.2703 594.833 52.1469C595.374 54.0227 596.283 55.7729 597.507 57.2944C598.858 58.9485 600.91 60.3861 602.989 59.8924C603.775 59.6526 604.481 59.2031 605.031 58.5926C605.581 57.9829 605.956 57.2347 606.115 56.4284C606.414 54.8116 606.252 53.1428 605.647 51.6135C604.902 52.0707 604.265 52.683 603.779 53.4096C603.293 54.1361 602.97 54.9588 602.833 55.8222C602.452 57.5542 602.478 59.2862 602.183 61.0182C600.555 70.7348 589.851 75.0734 587.773 84.4002" stroke="#242424" stroke-width="4.59" stroke-linejoin="round"/>
<path d="M536.055 17.5104L519.021 -0.251221" stroke="#242424" stroke-width="4.59" stroke-linejoin="round"/>
<path d="M630.111 18.6182L647.527 1.22021" stroke="#242424" stroke-width="4.59" stroke-linejoin="round"/>
</svg>
