<svg width="28" height="36" viewBox="0 0 28 36" fill="none" xmlns="http://www.w3.org/2000/svg">
<path fill-rule="evenodd" clip-rule="evenodd" d="M5.39512 10.2233L6.02406 15.8838L4.75131 15.9854C2.97647 16.1271 1.52722 17.4613 1.23951 19.2184C0.576412 23.268 0.576412 27.3986 1.23951 31.4482C1.52722 33.2053 2.97648 34.5395 4.75131 34.6812L7.49422 34.9002C11.8248 35.2459 16.1761 35.2459 20.5067 34.9002L23.2496 34.6812C25.0244 34.5395 26.4737 33.2053 26.7614 31.4482C27.4245 27.3986 27.4245 23.268 26.7614 19.2184C26.4737 17.4613 25.0244 16.1271 23.2496 15.9854L21.9766 15.8838L22.6056 10.2233C22.6797 9.55601 22.6797 8.88256 22.6056 8.21527L22.5639 7.83962C22.1211 3.85508 18.9887 0.702367 15.0071 0.233943C14.3382 0.155255 13.6625 0.155255 12.9936 0.233942C9.01202 0.702367 5.87958 3.85507 5.43685 7.83962L5.39512 8.21527C5.32097 8.88256 5.32097 9.55601 5.39512 10.2233ZM14.6858 2.96511C14.2304 2.91153 13.7703 2.91153 13.3149 2.96511C10.6041 3.28403 8.47146 5.43049 8.17003 8.14331L8.1283 8.51895C8.07658 8.98441 8.07658 9.45416 8.1283 9.91962L8.76776 15.6748C12.2526 15.4513 15.7481 15.4513 19.2329 15.6748L19.8724 9.91962C19.9241 9.45416 19.9241 8.98441 19.8724 8.51895L19.8307 8.14331C19.5292 5.4305 17.3966 3.28403 14.6858 2.96511ZM14.0004 22.5833C12.4816 22.5833 11.2504 23.8145 11.2504 25.3333C11.2504 26.8521 12.4816 28.0833 14.0004 28.0833C15.5192 28.0833 16.7504 26.8521 16.7504 25.3333C16.7504 23.8145 15.5192 22.5833 14.0004 22.5833Z" fill="black"/>
</svg>
