<svg width="28" height="37" viewBox="0 0 28 37" fill="none" xmlns="http://www.w3.org/2000/svg">
<path fill-rule="evenodd" clip-rule="evenodd" d="M15.8335 2.49996C15.8335 1.48744 15.0127 0.666626 14.0002 0.666626C12.9877 0.666626 12.1668 1.48744 12.1668 2.49996V3.87496H11.1449C7.06561 3.87496 3.68935 7.04665 3.4347 11.118L3.02953 17.596C2.87505 20.0659 2.04586 22.446 0.632246 24.4772C-0.645004 26.3125 0.492067 28.8472 2.71211 29.1136L8.95851 29.8632V31.8333C8.95851 34.6177 11.2157 36.875 14.0002 36.875C16.7846 36.875 19.0418 34.6177 19.0418 31.8333V29.8632L25.2882 29.1136C27.5083 28.8472 28.6453 26.3125 27.3681 24.4772C25.9545 22.446 25.1253 20.0659 24.9708 17.596L24.5656 11.118C24.311 7.04665 20.9347 3.87496 16.8554 3.87496H15.8335V2.49996ZM11.7085 31.8333C11.7085 33.0989 12.7345 34.125 14.0002 34.125C15.2658 34.125 16.2918 33.0989 16.2918 31.8333V30.4583H11.7085V31.8333Z" fill="black"/>
</svg>
