<svg width="28" height="30" viewBox="0 0 28 30" fill="none" xmlns="http://www.w3.org/2000/svg">
<path d="M16.1276 1.0796C14.8185 0.291337 13.1809 0.291338 11.8718 1.0796L10.9252 1.64957C8.62854 3.03253 6.05018 3.88116 3.38107 4.13262L2.78472 4.18881C1.60755 4.29971 0.708008 5.28799 0.708008 6.47037V9.48417C0.708008 14.5783 2.77616 19.4542 6.43871 22.9948L12.4069 28.7643C13.2951 29.623 14.7042 29.623 15.5925 28.7643L21.5606 22.9948C25.2232 19.4542 27.2913 14.5783 27.2913 9.48416V6.47037C27.2913 5.28799 26.3918 4.29971 25.2146 4.18881L24.6183 4.13262C21.9492 3.88116 19.3708 3.03253 17.0741 1.64957L16.1276 1.0796Z" fill="black"/>
</svg>
