<svg width="14" height="17" viewBox="0 0 14 17" fill="none" xmlns="http://www.w3.org/2000/svg">
<path d="M0.75 6.13832C0.75 2.78102 3.56169 0.083374 7 0.083374C10.4383 0.083374 13.25 2.78102 13.25 6.13832C13.25 8.09997 12.4391 9.86979 10.9209 10.986C10.8161 11.063 10.7527 11.1586 10.7306 11.2524C10.6859 11.4424 10.6368 11.6599 10.5862 11.8932C10.5613 12.0086 10.4593 12.0913 10.3412 12.0913H3.65878C3.54067 12.0913 3.43874 12.0086 3.41375 11.8932C3.36323 11.6599 3.31413 11.4424 3.26938 11.2524C3.24729 11.1586 3.18387 11.063 3.07908 10.986C1.56094 9.86979 0.75 8.09997 0.75 6.13832Z" fill="#F7F7F7"/>
<path d="M4.00045 13.3413C3.84472 13.3413 3.72702 13.4822 3.75293 13.6357C3.83121 14.0996 3.88836 14.5138 3.90568 14.8C3.95818 15.6676 4.59726 16.3823 5.45186 16.567L5.61517 16.6023C6.52718 16.7993 7.47282 16.7993 8.38483 16.6023L8.54814 16.567C9.40274 16.3823 10.0418 15.6676 10.0943 14.8C10.1116 14.5138 10.1688 14.0996 10.2471 13.6357C10.273 13.4822 10.1553 13.3413 9.99955 13.3413H4.00045Z" fill="#F7F7F7"/>
</svg>
