<svg width="20" height="20" viewBox="0 0 20 20" fill="none" xmlns="http://www.w3.org/2000/svg">
<path d="M3.75 8.13844C3.75 4.78115 6.56169 2.0835 10 2.0835C13.4383 2.0835 16.25 4.78115 16.25 8.13844C16.25 10.1001 15.4391 11.8699 13.9209 12.9861C13.8161 13.0631 13.7527 13.1587 13.7306 13.2525C13.6859 13.4425 13.6368 13.66 13.5862 13.8933C13.5613 14.0088 13.4593 14.0914 13.3412 14.0914H6.65878C6.54067 14.0914 6.43874 14.0088 6.41375 13.8933C6.36323 13.66 6.31413 13.4425 6.26938 13.2525C6.24729 13.1587 6.18387 13.0631 6.07908 12.9861C4.56094 11.8699 3.75 10.1001 3.75 8.13844Z" fill="#242424"/>
<path d="M7.00045 15.3414C6.84472 15.3414 6.72702 15.4823 6.75293 15.6359C6.83121 16.0997 6.88836 16.5139 6.90568 16.8001C6.95818 17.6678 7.59726 18.3825 8.45186 18.5671L8.61517 18.6024C9.52718 18.7994 10.4728 18.7994 11.3848 18.6024L11.5481 18.5671C12.4027 18.3825 13.0418 17.6678 13.0943 16.8001C13.1116 16.5139 13.1688 16.0997 13.2471 15.6359C13.273 15.4823 13.1553 15.3414 12.9996 15.3414H7.00045Z" fill="#242424"/>
</svg>
