<svg width="400" height="400" viewBox="0 0 400 400" fill="none" xmlns="http://www.w3.org/2000/svg">
<path d="M93.3439 291.475C90.1439 288.567 87.1799 285.607 84.4639 282.631" stroke="#CCDDE2" stroke-width="4.20833" stroke-miterlimit="10"/>
<path d="M360.001 204.992C360.025 206.992 360.001 209.032 359.905 211.076C359.337 223.72 356.629 236.788 349.861 247.436C348.629 249.401 347.254 251.272 345.749 253.036C331.349 251.136 329.201 236.448 312.549 228.144C292.601 218.172 259.937 221.744 259.937 221.744L276.029 206.9C275.169 162.196 242.349 164.94 242.349 164.94L240.681 169.024C241.947 165.325 243.229 161.876 244.525 158.676L244.597 158.508C259.797 120.756 275.545 116.076 287.797 110.624C290.723 109.929 293.721 109.572 296.729 109.56C328.053 109.392 346.437 141.292 354.477 166.972C356.477 173.372 359.553 187.06 359.965 202.452C359.973 203.276 360.001 204.136 360.001 204.992Z" fill="#2E2E2E"/>
<path d="M377.6 372.544C375.168 375.892 371.156 377.716 367.02 377.716H319.5C317.674 377.742 315.863 377.386 314.183 376.67C312.502 375.954 310.991 374.895 309.744 373.56C309.576 373.389 309.418 373.208 309.272 373.016C307.783 371.172 306.852 368.94 306.588 366.584C306.348 364.42 307.956 362.496 310.132 362.584C310.957 362.616 311.742 362.946 312.342 363.512C312.942 364.078 313.317 364.843 313.396 365.664C313.396 365.836 313.432 366.004 313.456 366.172C313.632 367.148 314.062 368.062 314.7 368.82C315.266 369.488 315.975 370.019 316.776 370.373C317.576 370.727 318.446 370.895 319.32 370.864H367.224C368.082 370.879 368.932 370.708 369.718 370.362C370.503 370.017 371.204 369.506 371.772 368.864C372.414 368.122 372.851 367.226 373.042 366.264C373.233 365.302 373.17 364.307 372.86 363.376L351.464 299.756C351.29 299.268 351.083 298.792 350.844 298.332C349.588 295.679 347.598 293.442 345.108 291.886C342.619 290.331 339.736 289.522 336.8 289.556C327.792 289.664 316.356 289.688 315.28 289.688C291.308 289.6 280.4 289.6 274.4 289.76C274.812 288.286 275.556 286.926 276.576 285.784C276.576 285.784 276.6 285.76 276.6 285.748C278.064 284.189 280.066 283.246 282.2 283.112C291.088 282.384 299.888 281.056 308.436 278.736C323.52 274.648 337.908 267.636 347.904 256.36C352.77 250.902 356.448 244.492 358.704 237.536C360.456 232.014 361.559 226.306 361.992 220.528C362.147 218.704 362.243 216.867 362.28 215.016V214.932C362.28 214.508 362.304 214.072 362.304 213.648C362.359 211.012 362.238 208.376 361.944 205.756C364.556 205.777 367.058 206.812 368.92 208.644C369.084 209.075 369.204 209.522 369.28 209.976C369.353 210.407 369.389 210.843 369.388 211.28V263.02C369.393 266.554 368.695 270.054 367.336 273.316C365.977 276.578 363.984 279.538 361.472 282.024C357.312 286.144 356.128 292.396 358.1 297.896L379.364 361.168C380.007 363.066 380.182 365.092 379.875 367.072C379.568 369.052 378.788 370.93 377.6 372.544Z" fill="#EDA35E"/>
<path d="M84.4678 370.947V225.895H93.3438V371.007L84.4678 370.947Z" fill="#2E2E2E"/>
<path d="M259.939 221.724C266.295 221.048 273.647 220.248 280.707 220.408" stroke="black" stroke-width="4.20833" stroke-miterlimit="10"/>
<path d="M225.315 228.131C214.059 230.971 203.107 235.071 193.763 241.887C178.083 253.311 170.915 274.623 177.323 293.087C177.323 293.111 202.523 365.803 202.523 365.803H195.891C194.462 365.803 193.047 366.085 191.727 366.634C190.408 367.184 189.21 367.989 188.203 369.003C186.231 370.963 185.259 374.231 185.259 377.231H244.951L222.267 303.031C221.702 301.202 221.574 299.266 221.896 297.378C222.218 295.491 222.979 293.706 224.118 292.168C225.258 290.629 226.744 289.381 228.456 288.523C230.167 287.666 232.057 287.223 233.971 287.231C246.895 287.595 258.899 288.091 271.971 287.523" stroke="black" stroke-width="2.5" stroke-miterlimit="10"/>
<path d="M360.092 211.68V211.6C359.512 196 358.728 180.608 354.46 166.96C346.42 141.28 328.036 109.38 296.712 109.548C293.704 109.559 290.707 109.916 287.78 110.612C267.132 115.52 252.792 136.676 244.58 158.496L244.508 158.664C243.724 160.757 242.999 162.845 242.332 164.928C241.88 166.329 241.323 167.694 240.664 169.012C238.149 174.081 234.161 178.273 229.224 181.038C224.286 183.804 218.629 185.014 212.992 184.512C175.072 181.064 125.096 179.096 109.356 205.74" stroke="black" stroke-width="2.5" stroke-miterlimit="10"/>
<path d="M298.04 182.664C292.52 189.328 286.708 195.764 280.7 201.988C268.4 214.74 257.788 228.284 238.7 229.188C223.472 229.92 208.976 224.076 194.576 220.024C179.172 215.692 171.376 212.228 157.02 207.852C152.886 206.597 148.597 205.924 144.276 205.852L129.824 205.964" stroke="black" stroke-width="2.5" stroke-miterlimit="10"/>
<path d="M241.672 366.74C243.048 366.123 244.54 365.807 246.048 365.812H252.696C252.696 365.812 238.8 338.8 227.688 320.82" stroke="black" stroke-width="2.5" stroke-miterlimit="10"/>
<path d="M250.8 287.584L297.28 377.716H244.704H235.168" stroke="black" stroke-width="2.5" stroke-miterlimit="10"/>
<path d="M377.6 372.544C375.168 375.892 371.156 377.716 367.02 377.716H319.5C315.56 377.716 311.717 376.084 309.261 373.004C307.771 371.16 306.84 368.928 306.576 366.572C306.336 364.408 307.944 362.484 310.12 362.572C310.945 362.604 311.73 362.934 312.33 363.5C312.93 364.066 313.305 364.831 313.385 365.652C313.482 366.814 313.937 367.917 314.688 368.808C315.262 369.466 315.973 369.99 316.771 370.343C317.57 370.696 318.436 370.87 319.308 370.852H367.224C368.082 370.867 368.933 370.696 369.718 370.35C370.503 370.005 371.204 369.494 371.772 368.852C372.414 368.11 372.851 367.214 373.042 366.252C373.232 365.29 373.17 364.295 372.861 363.364L351.464 299.756C350.381 296.744 348.387 294.144 345.76 292.317C343.132 290.489 340.001 289.524 336.8 289.556C327.792 289.664 316.356 289.688 315.28 289.688C288.588 289.604 278.081 289.604 272.513 289.808C272.426 289.808 272.34 289.79 272.26 289.756C272.18 289.723 272.108 289.674 272.047 289.612C271.986 289.55 271.938 289.478 271.905 289.397C271.873 289.317 271.856 289.231 271.856 289.144C271.848 286.675 272.754 284.29 274.4 282.448C274.407 282.444 274.412 282.438 274.416 282.431C274.42 282.424 274.423 282.416 274.424 282.408C275.89 280.852 277.891 279.912 280.024 279.776C288.912 279.048 297.713 277.72 306.261 275.4C321.345 271.312 335.732 264.3 345.728 253.024C350.594 247.566 354.272 241.156 356.528 234.2C358.275 228.68 359.374 222.975 359.804 217.2C359.962 215.371 360.058 213.534 360.092 211.688V211.6C360.092 211.18 360.116 210.744 360.116 210.32C360.171 207.684 360.051 205.048 359.757 202.428C364.109 202.404 368.497 205.568 369.257 209.984C369.329 210.415 369.365 210.851 369.364 211.288V263.02C369.368 266.554 368.671 270.054 367.312 273.316C365.953 276.578 363.96 279.538 361.448 282.024C357.288 286.144 356.104 292.396 358.076 297.896L379.34 361.168C379.986 363.065 380.165 365.089 379.863 367.069C379.56 369.05 378.784 370.928 377.6 372.544Z" stroke="black" stroke-width="2.5" stroke-miterlimit="10"/>
<path d="M149.296 214.905H25.492C22.4588 214.905 20 217.364 20 220.397V220.401C20 223.434 22.4588 225.893 25.492 225.893H149.296C152.329 225.893 154.788 223.434 154.788 220.401V220.397C154.788 217.364 152.329 214.905 149.296 214.905Z" stroke="black" stroke-width="2.5" stroke-miterlimit="10"/>
<path d="M114.237 371.636H64.1766C62.4778 371.636 61.1006 373.013 61.1006 374.712C61.1006 376.411 62.4778 377.788 64.1766 377.788H114.237C115.935 377.788 117.313 376.411 117.313 374.712C117.313 373.013 115.935 371.636 114.237 371.636Z" stroke="black" stroke-width="4.20833" stroke-miterlimit="10"/>
<path d="M77.5439 209.973V210.525C77.6239 214.321 81.1959 214.901 84.2759 214.925L143.82 214.885C146.428 214.885 148.58 212.885 148.584 210.429V210.325C148.536 207.925 146.44 205.969 143.864 205.965C143.864 205.965 110.552 205.845 84.7519 205.769C84.2879 207.121 83.1119 208.169 81.6439 209.025C80.3811 209.687 78.9691 210.013 77.5439 209.973Z" stroke="black" stroke-width="2.5" stroke-miterlimit="10"/>
<path d="M44.7993 156.492C44.8117 157.124 44.9925 157.741 45.3233 158.28L72.9233 204.636C73.2805 205.193 73.7493 205.671 74.2997 206.038C74.8505 206.406 75.4713 206.656 76.1233 206.772C77.2261 206.989 78.3689 206.865 79.3993 206.416C81.0913 205.664 82.0673 204.148 82.0353 202.612C82.0293 202.419 82.0093 202.226 81.9753 202.036C81.8905 201.612 81.7333 201.206 81.5113 200.836L53.9113 154.48C52.7113 152.452 49.7753 151.656 47.4153 152.7C45.7313 153.436 44.7553 154.952 44.7993 156.492Z" stroke="black" stroke-width="2.5" stroke-miterlimit="10"/>
<path d="M119.432 205.964C119.432 205.964 122.756 202.8 130.4 197.776" stroke="black" stroke-width="4.20833" stroke-miterlimit="10"/>
<path d="M146.536 153.964L134.42 167.4C133.576 168.336 132.405 168.912 131.149 169.01C129.892 169.108 128.646 168.719 127.668 167.924C127.127 167.485 126.687 166.937 126.374 166.316C126.061 165.694 125.883 165.013 125.853 164.318C125.823 163.623 125.941 162.929 126.198 162.282C126.456 161.636 126.848 161.052 127.348 160.568L129.564 158.424C129.648 158.304 129.744 158.196 129.84 158.084L131.44 156.32L145.2 141.368C146.87 139.532 148.973 138.145 151.317 137.332C153.661 136.518 156.172 136.305 158.62 136.712L158.824 136.748" stroke="black" stroke-width="2.5" stroke-miterlimit="10"/>
<path d="M163.6 157.6H151.48C150.101 157.6 148.779 157.052 147.803 156.077C146.828 155.102 146.28 153.779 146.28 152.4C146.28 151.021 146.828 149.698 147.803 148.723C148.779 147.748 150.101 147.2 151.48 147.2H168.68" stroke="black" stroke-width="2.5" stroke-miterlimit="10"/>
<path d="M154.308 157.6C154.14 159.724 153.328 161.296 152.132 162.4C149.052 165.2 143.404 164.892 139.476 162.968" stroke="black" stroke-width="2.5" stroke-miterlimit="10"/>
<path d="M131.46 156.312C127.976 152.116 128.692 146.412 131.4 142C142.58 123.744 163.892 134.988 177.904 142.856C186.245 147.562 194.218 152.892 201.756 158.8C208.428 164 214.604 170.224 222.62 173.352C227.42 175.228 233.088 175.676 237.864 173.512" stroke="black" stroke-width="2.5" stroke-miterlimit="10"/>
<path d="M152.132 162.369C160.587 168.609 168.659 175.351 176.308 182.557" stroke="black" stroke-width="2.5" stroke-miterlimit="10"/>
<path d="M255.004 64.2312C257.028 66.0792 260.136 66.1792 262.708 65.9312C265.996 65.6312 269.252 64.8352 272.472 64.1632L274.428 64.0632H274.456C274.831 64.0672 275.202 64.1444 275.547 64.2916C275.892 64.4384 276.205 64.652 276.467 64.9196C276.73 65.1876 276.937 65.5044 277.077 65.8524C277.218 66.2004 277.288 66.5724 277.284 66.9472C277.329 71.1688 276.908 75.3824 276.028 79.5112L279.776 81.5392C280.26 80.1872 279.716 78.2392 280.864 78.0912C281.6 76.7192 282.696 75.8272 284.416 76.8472C287.784 78.8472 289.112 84.7232 285.868 87.4152L287.948 91.3032C288.673 92.6664 289.849 93.7352 291.274 94.3276C292.7 94.92 294.287 94.9992 295.764 94.5512L293.64 89.8552C298.624 90.7392 302.112 84.5192 300.592 80.7232C299.556 78.1152 299.608 76.0872 300.992 73.5512C301.084 73.3792 300.144 73.1512 300.224 72.9752C300.272 71.1152 299.756 69.1232 298.86 68.1752C297.284 66.4792 294.112 66.1752 294.76 63.5992C295.048 62.4784 295.154 61.3184 295.076 60.1632C294.907 58.6532 294.416 57.1968 293.637 55.8924C292.858 54.5876 291.809 53.4648 290.56 52.5992C287.936 50.8752 285 52.4392 282.196 52.3952C278.792 52.3592 276.352 49.4712 272.784 49.4272C271.008 49.3992 269.584 50.0912 268.064 50.9512C266.792 51.6832 265.54 52.4472 264.324 53.2752C263.108 54.1032 262.028 54.8192 260.576 54.8232C258.684 54.8472 256.856 53.6472 254.952 54.2072C253.989 54.4664 253.143 55.0448 252.552 55.8472C251.948 58.7992 253.04 62.4512 255.004 64.2312Z" fill="#EDA35E"/>
<path d="M279.792 81.1005C280.036 80.0585 280.396 79.0469 280.864 78.0845C281.6 76.7124 282.7 75.8204 284.416 76.8404C287.784 78.8404 289.112 84.7164 285.868 87.4084L287.948 91.2965C288.673 92.6593 289.849 93.7285 291.274 94.3209C292.7 94.9133 294.287 94.992 295.764 94.5444" stroke="black" stroke-width="4.20833" stroke-linecap="round" stroke-linejoin="round"/>
<path d="M293.641 89.8484L295.757 94.5524C296.289 95.6764 297.813 99.1324 299.409 102.724C300.545 105.296 301.729 107.944 302.609 109.892" stroke="black" stroke-width="4.20833" stroke-linecap="round" stroke-linejoin="round"/>
<path d="M259.363 72.9564C259.363 72.9564 265.599 71.4044 268.323 76.1324" stroke="black" stroke-width="4.20833" stroke-miterlimit="10"/>
<path d="M261.201 87.0724C259.521 87.5324 257.261 87.9444 255.965 86.4804L258.789 80.5364C259.474 79.0788 259.644 77.4312 259.269 75.8644C258.653 73.2284 257.113 69.2244 258.765 65.7484" stroke="black" stroke-width="4.20833" stroke-miterlimit="10"/>
<path d="M265.397 79.106C265.87 78.3208 265.505 77.2332 264.582 76.6768C263.658 76.1204 262.526 76.3056 262.053 77.0908C261.58 77.876 261.944 78.9636 262.868 79.52C263.791 80.0768 264.923 79.8912 265.397 79.106Z" fill="black"/>
<path d="M274.496 116.529L273.016 100.105" stroke="black" stroke-width="4.20833" stroke-miterlimit="10"/>
<path d="M279.776 81.5312C279.776 81.3872 279.776 81.2392 279.776 81.0952C279.784 80.9408 279.784 80.786 279.776 80.6312" stroke="black" stroke-width="4.20833" stroke-linecap="round" stroke-linejoin="round"/>
<path d="M279.779 81.5368L278.491 80.8448L276.027 79.5048" stroke="black" stroke-width="4.20833" stroke-linecap="round" stroke-linejoin="round"/>
<path d="M269.468 87.4952C269.468 87.4952 269.344 91.6552 264.588 93.3672" stroke="black" stroke-width="4.20833" stroke-miterlimit="10"/>
<path d="M293.64 89.848C298.624 90.732 302.112 84.512 300.592 80.716C299.556 78.108 299.608 76.08 300.992 73.544C301.084 73.372 301.16 73.204 301.24 73.036C302.268 70.768 301.904 68.52 300.288 66.592C298.756 64.768 296.448 64.128 297.112 61.468C297.41 60.3132 297.521 59.118 297.44 57.928C297.267 56.3748 296.764 54.8768 295.963 53.5348C295.163 52.1928 294.084 51.038 292.8 50.148C290.104 48.36 287.068 49.98 284.164 49.936C280.668 49.884 278.144 46.908 274.476 46.864C272.64 46.864 271.16 47.548 269.6 48.436C268.288 49.192 266.988 49.988 265.748 50.836C264.508 51.684 263.348 52.436 261.876 52.436C259.924 52.436 258.04 51.236 256.088 51.796C254.136 52.356 252.976 53.972 252.592 55.844C251.968 58.78 253.06 62.448 255.024 64.244C257.048 66.092 260.156 66.192 262.728 65.944C266.016 65.644 269.272 64.848 272.492 64.176L274.448 64.076H274.476C274.851 64.0796 275.221 64.1572 275.566 64.304C275.912 64.4512 276.224 64.6644 276.487 64.9324C276.75 65.2 276.957 65.5172 277.097 65.8648C277.237 66.2128 277.307 66.5848 277.304 66.96C277.348 71.1816 276.927 75.3948 276.048 79.524" stroke="black" stroke-width="4.20833" stroke-miterlimit="10"/>
<path d="M280.532 94.4C280.532 94.4 273.1 104.272 266.496 102.06C259.892 99.848 259.556 87.6281 259.556 87.6281" stroke="black" stroke-width="4.20833" stroke-linecap="round" stroke-linejoin="round"/>
<path d="M84.4678 370.947V225.895H93.3438V371.007" stroke="#2E2E2E" stroke-width="4.20833" stroke-miterlimit="10"/>
<path d="M134.38 377.716H300.888" stroke="black" stroke-width="2.625" stroke-miterlimit="10"/>
</svg>
